<?xml version="1.0" encoding="utf-8" standalone="no"?>
<!DOCTYPE svg PUBLIC "-//W3C//DTD SVG 1.1//EN"
  "http://www.w3.org/Graphics/SVG/1.1/DTD/svg11.dtd">
<svg xmlns:xlink="http://www.w3.org/1999/xlink" width="409.798125pt" height="325.986375pt" viewBox="0 0 409.798125 325.986375" xmlns="http://www.w3.org/2000/svg" version="1.1">
 <metadata>
  <rdf:RDF xmlns:dc="http://purl.org/dc/elements/1.1/" xmlns:cc="http://creativecommons.org/ns#" xmlns:rdf="http://www.w3.org/1999/02/22-rdf-syntax-ns#">
   <cc:Work>
    <dc:type rdf:resource="http://purl.org/dc/dcmitype/StillImage"/>
    <dc:date>2023-11-29T10:40:33.647470</dc:date>
    <dc:format>image/svg+xml</dc:format>
    <dc:creator>
     <cc:Agent>
      <dc:title>Matplotlib v3.5.3, https://matplotlib.org/</dc:title>
     </cc:Agent>
    </dc:creator>
   </cc:Work>
  </rdf:RDF>
 </metadata>
 <defs>
  <style type="text/css">*{stroke-linejoin: round; stroke-linecap: butt}</style>
 </defs>
 <g id="figure_1">
  <g id="patch_1">
   <path d="M 0 325.986375 
L 409.798125 325.986375 
L 409.798125 0 
L 0 0 
z
" style="fill: #ffffff"/>
  </g>
  <g id="axes_1">
   <g id="patch_2">
    <path d="M 45.478125 288.430125 
L 402.598125 288.430125 
L 402.598125 22.318125 
L 45.478125 22.318125 
z
" style="fill: #ffffff"/>
   </g>
   <g id="matplotlib.axis_1">
    <g id="xtick_1">
     <g id="line2d_1">
      <defs>
       <path id="m597f93a095" d="M 0 0 
L 0 3.5 
" style="stroke: #000000; stroke-width: 0.8"/>
      </defs>
      <g>
       <use xlink:href="#m597f93a095" x="61.710852" y="288.430125" style="stroke: #000000; stroke-width: 0.8"/>
      </g>
     </g>
     <g id="text_1">
      <!-- −500 -->
      <g transform="translate(47.977259 303.028562)scale(0.1 -0.1)">
       <defs>
        <path id="DejaVuSans-2212" d="M 678 2272 
L 4684 2272 
L 4684 1741 
L 678 1741 
L 678 2272 
z
" transform="scale(0.015625)"/>
        <path id="DejaVuSans-35" d="M 691 4666 
L 3169 4666 
L 3169 4134 
L 1269 4134 
L 1269 2991 
Q 1406 3038 1543 3061 
Q 1681 3084 1819 3084 
Q 2600 3084 3056 2656 
Q 3513 2228 3513 1497 
Q 3513 744 3044 326 
Q 2575 -91 1722 -91 
Q 1428 -91 1123 -41 
Q 819 9 494 109 
L 494 744 
Q 775 591 1075 516 
Q 1375 441 1709 441 
Q 2250 441 2565 725 
Q 2881 1009 2881 1497 
Q 2881 1984 2565 2268 
Q 2250 2553 1709 2553 
Q 1456 2553 1204 2497 
Q 953 2441 691 2322 
L 691 4666 
z
" transform="scale(0.015625)"/>
        <path id="DejaVuSans-30" d="M 2034 4250 
Q 1547 4250 1301 3770 
Q 1056 3291 1056 2328 
Q 1056 1369 1301 889 
Q 1547 409 2034 409 
Q 2525 409 2770 889 
Q 3016 1369 3016 2328 
Q 3016 3291 2770 3770 
Q 2525 4250 2034 4250 
z
M 2034 4750 
Q 2819 4750 3233 4129 
Q 3647 3509 3647 2328 
Q 3647 1150 3233 529 
Q 2819 -91 2034 -91 
Q 1250 -91 836 529 
Q 422 1150 422 2328 
Q 422 3509 836 4129 
Q 1250 4750 2034 4750 
z
" transform="scale(0.015625)"/>
       </defs>
       <use xlink:href="#DejaVuSans-2212"/>
       <use xlink:href="#DejaVuSans-35" x="83.789062"/>
       <use xlink:href="#DejaVuSans-30" x="147.412109"/>
       <use xlink:href="#DejaVuSans-30" x="211.035156"/>
      </g>
     </g>
    </g>
    <g id="xtick_2">
     <g id="line2d_2">
      <g>
       <use xlink:href="#m597f93a095" x="126.641761" y="288.430125" style="stroke: #000000; stroke-width: 0.8"/>
      </g>
     </g>
     <g id="text_2">
      <!-- 0 -->
      <g transform="translate(123.460511 303.028562)scale(0.1 -0.1)">
       <use xlink:href="#DejaVuSans-30"/>
      </g>
     </g>
    </g>
    <g id="xtick_3">
     <g id="line2d_3">
      <g>
       <use xlink:href="#m597f93a095" x="191.57267" y="288.430125" style="stroke: #000000; stroke-width: 0.8"/>
      </g>
     </g>
     <g id="text_3">
      <!-- 500 -->
      <g transform="translate(182.02892 303.028562)scale(0.1 -0.1)">
       <use xlink:href="#DejaVuSans-35"/>
       <use xlink:href="#DejaVuSans-30" x="63.623047"/>
       <use xlink:href="#DejaVuSans-30" x="127.246094"/>
      </g>
     </g>
    </g>
    <g id="xtick_4">
     <g id="line2d_4">
      <g>
       <use xlink:href="#m597f93a095" x="256.50358" y="288.430125" style="stroke: #000000; stroke-width: 0.8"/>
      </g>
     </g>
     <g id="text_4">
      <!-- 1000 -->
      <g transform="translate(243.77858 303.028562)scale(0.1 -0.1)">
       <defs>
        <path id="DejaVuSans-31" d="M 794 531 
L 1825 531 
L 1825 4091 
L 703 3866 
L 703 4441 
L 1819 4666 
L 2450 4666 
L 2450 531 
L 3481 531 
L 3481 0 
L 794 0 
L 794 531 
z
" transform="scale(0.015625)"/>
       </defs>
       <use xlink:href="#DejaVuSans-31"/>
       <use xlink:href="#DejaVuSans-30" x="63.623047"/>
       <use xlink:href="#DejaVuSans-30" x="127.246094"/>
       <use xlink:href="#DejaVuSans-30" x="190.869141"/>
      </g>
     </g>
    </g>
    <g id="xtick_5">
     <g id="line2d_5">
      <g>
       <use xlink:href="#m597f93a095" x="321.434489" y="288.430125" style="stroke: #000000; stroke-width: 0.8"/>
      </g>
     </g>
     <g id="text_5">
      <!-- 1500 -->
      <g transform="translate(308.709489 303.028562)scale(0.1 -0.1)">
       <use xlink:href="#DejaVuSans-31"/>
       <use xlink:href="#DejaVuSans-35" x="63.623047"/>
       <use xlink:href="#DejaVuSans-30" x="127.246094"/>
       <use xlink:href="#DejaVuSans-30" x="190.869141"/>
      </g>
     </g>
    </g>
    <g id="xtick_6">
     <g id="line2d_6">
      <g>
       <use xlink:href="#m597f93a095" x="386.365398" y="288.430125" style="stroke: #000000; stroke-width: 0.8"/>
      </g>
     </g>
     <g id="text_6">
      <!-- 2000 -->
      <g transform="translate(373.640398 303.028562)scale(0.1 -0.1)">
       <defs>
        <path id="DejaVuSans-32" d="M 1228 531 
L 3431 531 
L 3431 0 
L 469 0 
L 469 531 
Q 828 903 1448 1529 
Q 2069 2156 2228 2338 
Q 2531 2678 2651 2914 
Q 2772 3150 2772 3378 
Q 2772 3750 2511 3984 
Q 2250 4219 1831 4219 
Q 1534 4219 1204 4116 
Q 875 4013 500 3803 
L 500 4441 
Q 881 4594 1212 4672 
Q 1544 4750 1819 4750 
Q 2544 4750 2975 4387 
Q 3406 4025 3406 3419 
Q 3406 3131 3298 2873 
Q 3191 2616 2906 2266 
Q 2828 2175 2409 1742 
Q 1991 1309 1228 531 
z
" transform="scale(0.015625)"/>
       </defs>
       <use xlink:href="#DejaVuSans-32"/>
       <use xlink:href="#DejaVuSans-30" x="63.623047"/>
       <use xlink:href="#DejaVuSans-30" x="127.246094"/>
       <use xlink:href="#DejaVuSans-30" x="190.869141"/>
      </g>
     </g>
    </g>
    <g id="text_7">
     <!-- Energy [kT] -->
     <g transform="translate(195.092031 316.706687)scale(0.1 -0.1)">
      <defs>
       <path id="DejaVuSans-45" d="M 628 4666 
L 3578 4666 
L 3578 4134 
L 1259 4134 
L 1259 2753 
L 3481 2753 
L 3481 2222 
L 1259 2222 
L 1259 531 
L 3634 531 
L 3634 0 
L 628 0 
L 628 4666 
z
" transform="scale(0.015625)"/>
       <path id="DejaVuSans-6e" d="M 3513 2113 
L 3513 0 
L 2938 0 
L 2938 2094 
Q 2938 2591 2744 2837 
Q 2550 3084 2163 3084 
Q 1697 3084 1428 2787 
Q 1159 2491 1159 1978 
L 1159 0 
L 581 0 
L 581 3500 
L 1159 3500 
L 1159 2956 
Q 1366 3272 1645 3428 
Q 1925 3584 2291 3584 
Q 2894 3584 3203 3211 
Q 3513 2838 3513 2113 
z
" transform="scale(0.015625)"/>
       <path id="DejaVuSans-65" d="M 3597 1894 
L 3597 1613 
L 953 1613 
Q 991 1019 1311 708 
Q 1631 397 2203 397 
Q 2534 397 2845 478 
Q 3156 559 3463 722 
L 3463 178 
Q 3153 47 2828 -22 
Q 2503 -91 2169 -91 
Q 1331 -91 842 396 
Q 353 884 353 1716 
Q 353 2575 817 3079 
Q 1281 3584 2069 3584 
Q 2775 3584 3186 3129 
Q 3597 2675 3597 1894 
z
M 3022 2063 
Q 3016 2534 2758 2815 
Q 2500 3097 2075 3097 
Q 1594 3097 1305 2825 
Q 1016 2553 972 2059 
L 3022 2063 
z
" transform="scale(0.015625)"/>
       <path id="DejaVuSans-72" d="M 2631 2963 
Q 2534 3019 2420 3045 
Q 2306 3072 2169 3072 
Q 1681 3072 1420 2755 
Q 1159 2438 1159 1844 
L 1159 0 
L 581 0 
L 581 3500 
L 1159 3500 
L 1159 2956 
Q 1341 3275 1631 3429 
Q 1922 3584 2338 3584 
Q 2397 3584 2469 3576 
Q 2541 3569 2628 3553 
L 2631 2963 
z
" transform="scale(0.015625)"/>
       <path id="DejaVuSans-67" d="M 2906 1791 
Q 2906 2416 2648 2759 
Q 2391 3103 1925 3103 
Q 1463 3103 1205 2759 
Q 947 2416 947 1791 
Q 947 1169 1205 825 
Q 1463 481 1925 481 
Q 2391 481 2648 825 
Q 2906 1169 2906 1791 
z
M 3481 434 
Q 3481 -459 3084 -895 
Q 2688 -1331 1869 -1331 
Q 1566 -1331 1297 -1286 
Q 1028 -1241 775 -1147 
L 775 -588 
Q 1028 -725 1275 -790 
Q 1522 -856 1778 -856 
Q 2344 -856 2625 -561 
Q 2906 -266 2906 331 
L 2906 616 
Q 2728 306 2450 153 
Q 2172 0 1784 0 
Q 1141 0 747 490 
Q 353 981 353 1791 
Q 353 2603 747 3093 
Q 1141 3584 1784 3584 
Q 2172 3584 2450 3431 
Q 2728 3278 2906 2969 
L 2906 3500 
L 3481 3500 
L 3481 434 
z
" transform="scale(0.015625)"/>
       <path id="DejaVuSans-79" d="M 2059 -325 
Q 1816 -950 1584 -1140 
Q 1353 -1331 966 -1331 
L 506 -1331 
L 506 -850 
L 844 -850 
Q 1081 -850 1212 -737 
Q 1344 -625 1503 -206 
L 1606 56 
L 191 3500 
L 800 3500 
L 1894 763 
L 2988 3500 
L 3597 3500 
L 2059 -325 
z
" transform="scale(0.015625)"/>
       <path id="DejaVuSans-20" transform="scale(0.015625)"/>
       <path id="DejaVuSans-5b" d="M 550 4863 
L 1875 4863 
L 1875 4416 
L 1125 4416 
L 1125 -397 
L 1875 -397 
L 1875 -844 
L 550 -844 
L 550 4863 
z
" transform="scale(0.015625)"/>
       <path id="DejaVuSans-6b" d="M 581 4863 
L 1159 4863 
L 1159 1991 
L 2875 3500 
L 3609 3500 
L 1753 1863 
L 3688 0 
L 2938 0 
L 1159 1709 
L 1159 0 
L 581 0 
L 581 4863 
z
" transform="scale(0.015625)"/>
       <path id="DejaVuSans-54" d="M -19 4666 
L 3928 4666 
L 3928 4134 
L 2272 4134 
L 2272 0 
L 1638 0 
L 1638 4134 
L -19 4134 
L -19 4666 
z
" transform="scale(0.015625)"/>
       <path id="DejaVuSans-5d" d="M 1947 4863 
L 1947 -844 
L 622 -844 
L 622 -397 
L 1369 -397 
L 1369 4416 
L 622 4416 
L 622 4863 
L 1947 4863 
z
" transform="scale(0.015625)"/>
      </defs>
      <use xlink:href="#DejaVuSans-45"/>
      <use xlink:href="#DejaVuSans-6e" x="63.183594"/>
      <use xlink:href="#DejaVuSans-65" x="126.5625"/>
      <use xlink:href="#DejaVuSans-72" x="188.085938"/>
      <use xlink:href="#DejaVuSans-67" x="227.449219"/>
      <use xlink:href="#DejaVuSans-79" x="290.925781"/>
      <use xlink:href="#DejaVuSans-20" x="350.105469"/>
      <use xlink:href="#DejaVuSans-5b" x="381.892578"/>
      <use xlink:href="#DejaVuSans-6b" x="420.90625"/>
      <use xlink:href="#DejaVuSans-54" x="478.816406"/>
      <use xlink:href="#DejaVuSans-5d" x="539.900391"/>
     </g>
    </g>
   </g>
   <g id="matplotlib.axis_2">
    <g id="ytick_1">
     <g id="line2d_7">
      <defs>
       <path id="me70c5acee3" d="M 0 0 
L -3.5 0 
" style="stroke: #000000; stroke-width: 0.8"/>
      </defs>
      <g>
       <use xlink:href="#me70c5acee3" x="45.478125" y="276.334125" style="stroke: #000000; stroke-width: 0.8"/>
      </g>
     </g>
     <g id="text_8">
      <!-- $\mathdefault{10^{0}}$ -->
      <g transform="translate(20.878125 280.133344)scale(0.1 -0.1)">
       <use xlink:href="#DejaVuSans-31" transform="translate(0 0.765625)"/>
       <use xlink:href="#DejaVuSans-30" transform="translate(63.623047 0.765625)"/>
       <use xlink:href="#DejaVuSans-30" transform="translate(128.203125 39.046875)scale(0.7)"/>
      </g>
     </g>
    </g>
    <g id="ytick_2">
     <g id="line2d_8">
      <g>
       <use xlink:href="#me70c5acee3" x="45.478125" y="179.817263" style="stroke: #000000; stroke-width: 0.8"/>
      </g>
     </g>
     <g id="text_9">
      <!-- $\mathdefault{10^{1}}$ -->
      <g transform="translate(20.878125 183.616482)scale(0.1 -0.1)">
       <use xlink:href="#DejaVuSans-31" transform="translate(0 0.684375)"/>
       <use xlink:href="#DejaVuSans-30" transform="translate(63.623047 0.684375)"/>
       <use xlink:href="#DejaVuSans-31" transform="translate(128.203125 38.965625)scale(0.7)"/>
      </g>
     </g>
    </g>
    <g id="ytick_3">
     <g id="line2d_9">
      <g>
       <use xlink:href="#me70c5acee3" x="45.478125" y="83.300401" style="stroke: #000000; stroke-width: 0.8"/>
      </g>
     </g>
     <g id="text_10">
      <!-- $\mathdefault{10^{2}}$ -->
      <g transform="translate(20.878125 87.09962)scale(0.1 -0.1)">
       <use xlink:href="#DejaVuSans-31" transform="translate(0 0.765625)"/>
       <use xlink:href="#DejaVuSans-30" transform="translate(63.623047 0.765625)"/>
       <use xlink:href="#DejaVuSans-32" transform="translate(128.203125 39.046875)scale(0.7)"/>
      </g>
     </g>
    </g>
    <g id="ytick_4">
     <g id="line2d_10">
      <defs>
       <path id="m26a15ecb88" d="M 0 0 
L -2 0 
" style="stroke: #000000; stroke-width: 0.6"/>
      </defs>
      <g>
       <use xlink:href="#m26a15ecb88" x="45.478125" y="285.687575" style="stroke: #000000; stroke-width: 0.6"/>
      </g>
     </g>
    </g>
    <g id="ytick_5">
     <g id="line2d_11">
      <g>
       <use xlink:href="#m26a15ecb88" x="45.478125" y="280.750494" style="stroke: #000000; stroke-width: 0.6"/>
      </g>
     </g>
    </g>
    <g id="ytick_6">
     <g id="line2d_12">
      <g>
       <use xlink:href="#m26a15ecb88" x="45.478125" y="247.279654" style="stroke: #000000; stroke-width: 0.6"/>
      </g>
     </g>
    </g>
    <g id="ytick_7">
     <g id="line2d_13">
      <g>
       <use xlink:href="#m26a15ecb88" x="45.478125" y="230.283879" style="stroke: #000000; stroke-width: 0.6"/>
      </g>
     </g>
    </g>
    <g id="ytick_8">
     <g id="line2d_14">
      <g>
       <use xlink:href="#m26a15ecb88" x="45.478125" y="218.225184" style="stroke: #000000; stroke-width: 0.6"/>
      </g>
     </g>
    </g>
    <g id="ytick_9">
     <g id="line2d_15">
      <g>
       <use xlink:href="#m26a15ecb88" x="45.478125" y="208.871734" style="stroke: #000000; stroke-width: 0.6"/>
      </g>
     </g>
    </g>
    <g id="ytick_10">
     <g id="line2d_16">
      <g>
       <use xlink:href="#m26a15ecb88" x="45.478125" y="201.229408" style="stroke: #000000; stroke-width: 0.6"/>
      </g>
     </g>
    </g>
    <g id="ytick_11">
     <g id="line2d_17">
      <g>
       <use xlink:href="#m26a15ecb88" x="45.478125" y="194.767914" style="stroke: #000000; stroke-width: 0.6"/>
      </g>
     </g>
    </g>
    <g id="ytick_12">
     <g id="line2d_18">
      <g>
       <use xlink:href="#m26a15ecb88" x="45.478125" y="189.170713" style="stroke: #000000; stroke-width: 0.6"/>
      </g>
     </g>
    </g>
    <g id="ytick_13">
     <g id="line2d_19">
      <g>
       <use xlink:href="#m26a15ecb88" x="45.478125" y="184.233633" style="stroke: #000000; stroke-width: 0.6"/>
      </g>
     </g>
    </g>
    <g id="ytick_14">
     <g id="line2d_20">
      <g>
       <use xlink:href="#m26a15ecb88" x="45.478125" y="150.762793" style="stroke: #000000; stroke-width: 0.6"/>
      </g>
     </g>
    </g>
    <g id="ytick_15">
     <g id="line2d_21">
      <g>
       <use xlink:href="#m26a15ecb88" x="45.478125" y="133.767017" style="stroke: #000000; stroke-width: 0.6"/>
      </g>
     </g>
    </g>
    <g id="ytick_16">
     <g id="line2d_22">
      <g>
       <use xlink:href="#m26a15ecb88" x="45.478125" y="121.708322" style="stroke: #000000; stroke-width: 0.6"/>
      </g>
     </g>
    </g>
    <g id="ytick_17">
     <g id="line2d_23">
      <g>
       <use xlink:href="#m26a15ecb88" x="45.478125" y="112.354872" style="stroke: #000000; stroke-width: 0.6"/>
      </g>
     </g>
    </g>
    <g id="ytick_18">
     <g id="line2d_24">
      <g>
       <use xlink:href="#m26a15ecb88" x="45.478125" y="104.712546" style="stroke: #000000; stroke-width: 0.6"/>
      </g>
     </g>
    </g>
    <g id="ytick_19">
     <g id="line2d_25">
      <g>
       <use xlink:href="#m26a15ecb88" x="45.478125" y="98.251052" style="stroke: #000000; stroke-width: 0.6"/>
      </g>
     </g>
    </g>
    <g id="ytick_20">
     <g id="line2d_26">
      <g>
       <use xlink:href="#m26a15ecb88" x="45.478125" y="92.653852" style="stroke: #000000; stroke-width: 0.6"/>
      </g>
     </g>
    </g>
    <g id="ytick_21">
     <g id="line2d_27">
      <g>
       <use xlink:href="#m26a15ecb88" x="45.478125" y="87.716771" style="stroke: #000000; stroke-width: 0.6"/>
      </g>
     </g>
    </g>
    <g id="ytick_22">
     <g id="line2d_28">
      <g>
       <use xlink:href="#m26a15ecb88" x="45.478125" y="54.245931" style="stroke: #000000; stroke-width: 0.6"/>
      </g>
     </g>
    </g>
    <g id="ytick_23">
     <g id="line2d_29">
      <g>
       <use xlink:href="#m26a15ecb88" x="45.478125" y="37.250155" style="stroke: #000000; stroke-width: 0.6"/>
      </g>
     </g>
    </g>
    <g id="ytick_24">
     <g id="line2d_30">
      <g>
       <use xlink:href="#m26a15ecb88" x="45.478125" y="25.19146" style="stroke: #000000; stroke-width: 0.6"/>
      </g>
     </g>
    </g>
    <g id="text_11">
     <!-- Counts -->
     <g transform="translate(14.798438 172.82725)rotate(-90)scale(0.1 -0.1)">
      <defs>
       <path id="DejaVuSans-43" d="M 4122 4306 
L 4122 3641 
Q 3803 3938 3442 4084 
Q 3081 4231 2675 4231 
Q 1875 4231 1450 3742 
Q 1025 3253 1025 2328 
Q 1025 1406 1450 917 
Q 1875 428 2675 428 
Q 3081 428 3442 575 
Q 3803 722 4122 1019 
L 4122 359 
Q 3791 134 3420 21 
Q 3050 -91 2638 -91 
Q 1578 -91 968 557 
Q 359 1206 359 2328 
Q 359 3453 968 4101 
Q 1578 4750 2638 4750 
Q 3056 4750 3426 4639 
Q 3797 4528 4122 4306 
z
" transform="scale(0.015625)"/>
       <path id="DejaVuSans-6f" d="M 1959 3097 
Q 1497 3097 1228 2736 
Q 959 2375 959 1747 
Q 959 1119 1226 758 
Q 1494 397 1959 397 
Q 2419 397 2687 759 
Q 2956 1122 2956 1747 
Q 2956 2369 2687 2733 
Q 2419 3097 1959 3097 
z
M 1959 3584 
Q 2709 3584 3137 3096 
Q 3566 2609 3566 1747 
Q 3566 888 3137 398 
Q 2709 -91 1959 -91 
Q 1206 -91 779 398 
Q 353 888 353 1747 
Q 353 2609 779 3096 
Q 1206 3584 1959 3584 
z
" transform="scale(0.015625)"/>
       <path id="DejaVuSans-75" d="M 544 1381 
L 544 3500 
L 1119 3500 
L 1119 1403 
Q 1119 906 1312 657 
Q 1506 409 1894 409 
Q 2359 409 2629 706 
Q 2900 1003 2900 1516 
L 2900 3500 
L 3475 3500 
L 3475 0 
L 2900 0 
L 2900 538 
Q 2691 219 2414 64 
Q 2138 -91 1772 -91 
Q 1169 -91 856 284 
Q 544 659 544 1381 
z
M 1991 3584 
L 1991 3584 
z
" transform="scale(0.015625)"/>
       <path id="DejaVuSans-74" d="M 1172 4494 
L 1172 3500 
L 2356 3500 
L 2356 3053 
L 1172 3053 
L 1172 1153 
Q 1172 725 1289 603 
Q 1406 481 1766 481 
L 2356 481 
L 2356 0 
L 1766 0 
Q 1100 0 847 248 
Q 594 497 594 1153 
L 594 3053 
L 172 3053 
L 172 3500 
L 594 3500 
L 594 4494 
L 1172 4494 
z
" transform="scale(0.015625)"/>
       <path id="DejaVuSans-73" d="M 2834 3397 
L 2834 2853 
Q 2591 2978 2328 3040 
Q 2066 3103 1784 3103 
Q 1356 3103 1142 2972 
Q 928 2841 928 2578 
Q 928 2378 1081 2264 
Q 1234 2150 1697 2047 
L 1894 2003 
Q 2506 1872 2764 1633 
Q 3022 1394 3022 966 
Q 3022 478 2636 193 
Q 2250 -91 1575 -91 
Q 1294 -91 989 -36 
Q 684 19 347 128 
L 347 722 
Q 666 556 975 473 
Q 1284 391 1588 391 
Q 1994 391 2212 530 
Q 2431 669 2431 922 
Q 2431 1156 2273 1281 
Q 2116 1406 1581 1522 
L 1381 1569 
Q 847 1681 609 1914 
Q 372 2147 372 2553 
Q 372 3047 722 3315 
Q 1072 3584 1716 3584 
Q 2034 3584 2315 3537 
Q 2597 3491 2834 3397 
z
" transform="scale(0.015625)"/>
      </defs>
      <use xlink:href="#DejaVuSans-43"/>
      <use xlink:href="#DejaVuSans-6f" x="69.824219"/>
      <use xlink:href="#DejaVuSans-75" x="131.005859"/>
      <use xlink:href="#DejaVuSans-6e" x="194.384766"/>
      <use xlink:href="#DejaVuSans-74" x="257.763672"/>
      <use xlink:href="#DejaVuSans-73" x="296.972656"/>
     </g>
    </g>
   </g>
   <g id="patch_3">
    <path d="M 69.694287 326.986375 
L 69.694287 276.334125 
L 69.782687 276.334125 
L 69.959491 276.334125 
L 69.959491 247.279654 
L 70.047891 276.334125 
L 70.224692 276.334125 
L 70.224692 201.229408 
L 70.313096 208.871734 
L 70.401496 208.871734 
L 70.401496 172.174938 
L 70.489896 184.233633 
L 70.578297 184.233633 
L 70.578297 194.767914 
L 70.666701 165.713444 
L 70.755101 165.713444 
L 70.755101 146.767701 
L 70.843501 148.717668 
L 70.931901 148.717668 
L 70.931901 135.188059 
L 71.020302 136.658973 
L 71.108706 136.658973 
L 71.108706 122.769562 
L 71.197106 123.85837 
L 71.285506 123.85837 
L 71.373906 106.862594 
L 71.46231 106.862594 
L 71.550711 102.007302 
L 71.639111 102.007302 
L 71.727511 74.283633 
L 71.815915 74.283633 
L 71.815915 73.946951 
L 71.904315 74.965221 
L 71.992716 74.965221 
L 72.081116 60.083343 
L 72.169516 60.083343 
L 72.25792 53.006922 
L 72.34632 53.006922 
L 72.34632 54.879445 
L 72.434721 49.30885 
L 72.523121 49.30885 
L 72.611525 46.082894 
L 72.699925 46.082894 
L 72.699925 39.400203 
L 72.788325 42.292159 
L 72.876726 42.292159 
L 72.876726 42.450038 
L 72.96513 39.107077 
L 73.05353 39.107077 
L 73.05353 39.695392 
L 73.14193 36.694958 
L 73.23033 36.694958 
L 73.23033 38.383109 
L 73.31873 34.414125 
L 73.407135 34.414125 
L 73.495535 37.812804 
L 73.583935 37.812804 
L 73.583935 35.338311 
L 73.672335 39.107077 
L 73.760739 39.107077 
L 73.84914 43.248476 
L 73.93754 43.248476 
L 74.02594 46.255747 
L 74.114344 46.255747 
L 74.114344 44.392474 
L 74.202744 47.486096 
L 74.291145 47.486096 
L 74.379545 52.601926 
L 74.467945 52.601926 
L 74.467945 57.287858 
L 74.556349 55.522681 
L 74.644749 55.522681 
L 74.644749 62.309533 
L 74.73315 58.199127 
L 74.82155 58.199127 
L 74.909954 74.623042 
L 74.998354 74.623042 
L 75.086754 81.656397 
L 75.175154 81.656397 
L 75.175154 89.137813 
L 75.263555 86.342328 
L 75.351959 86.342328 
L 75.351959 100.717454 
L 75.440359 95.921745 
L 75.528759 95.921745 
L 75.617159 107.604503 
L 75.705564 107.604503 
L 75.705564 121.708322 
L 75.793964 120.673288 
L 75.882364 120.673288 
L 75.970764 132.392574 
L 76.059168 132.392574 
L 76.059168 129.771925 
L 76.147569 136.658973 
L 76.235969 136.658973 
L 76.324369 168.819808 
L 76.412769 168.819808 
L 76.412769 165.713444 
L 76.501173 175.822171 
L 76.589574 175.822171 
L 76.677974 194.767914 
L 76.766374 194.767914 
L 76.766374 179.817263 
L 76.854778 218.225184 
L 77.119979 218.225184 
L 77.119979 247.279654 
L 77.208383 218.225184 
L 77.385183 218.225184 
L 77.385183 208.871734 
L 77.473583 247.279654 
L 77.561984 247.279654 
L 77.561984 326.986375 
M 77.650388 326.986375 
L 77.650388 208.871734 
L 77.738788 276.334125 
L 77.915588 276.334125 
L 77.915588 326.986375 
M 78.180793 326.986375 
L 78.180793 276.334125 
L 78.269193 276.334125 
L 78.357597 276.334125 
L 78.357597 326.986375 
M 78.445998 326.986375 
L 78.445998 276.334125 
L 78.534398 326.986375 
" clip-path="url(#p700c9f7d4c)" style="fill: none; stroke: #1f77b4; stroke-linejoin: miter"/>
   </g>
   <g id="patch_4">
    <path d="M 87.683216 326.986375 
L 87.683216 276.334125 
L 94.176307 276.334125 
L 94.176307 247.279654 
L 97.422852 247.279654 
L 97.422852 326.986375 
M 100.669398 326.986375 
L 100.669398 247.279654 
L 103.915943 247.279654 
L 103.915943 276.334125 
L 107.162489 276.334125 
L 107.162489 189.170713 
L 110.409034 189.170713 
L 110.409034 218.225184 
L 113.65558 218.225184 
L 113.65558 194.767914 
L 120.14867 194.767914 
L 120.14867 184.233633 
L 123.395216 184.233633 
L 123.395216 179.817263 
L 126.641761 179.817263 
L 126.641761 184.233633 
L 129.888307 184.233633 
L 129.888307 179.817263 
L 133.134852 179.817263 
L 133.134852 172.174938 
L 139.627943 172.174938 
L 139.627943 165.713444 
L 142.874489 165.713444 
L 142.874489 155.179162 
L 146.121034 155.179162 
L 146.121034 175.822171 
L 149.36758 175.822171 
L 149.36758 168.819808 
L 152.614125 168.819808 
L 152.614125 157.575056 
L 155.86067 157.575056 
L 155.86067 155.179162 
L 159.107216 155.179162 
L 159.107216 141.409342 
L 162.353761 141.409342 
L 162.353761 148.717668 
L 165.600307 148.717668 
L 165.600307 146.767701 
L 168.846852 146.767701 
L 168.846852 148.717668 
L 172.093398 148.717668 
L 172.093398 132.392574 
L 175.339943 132.392574 
L 175.339943 136.658973 
L 181.833034 136.658973 
L 181.833034 148.717668 
L 185.07958 148.717668 
L 185.07958 133.767017 
L 188.326125 133.767017 
L 188.326125 132.392574 
L 191.57267 132.392574 
L 191.57267 139.765338 
L 194.819216 139.765338 
L 194.819216 146.767701 
L 198.065761 146.767701 
L 198.065761 139.765338 
L 201.312307 139.765338 
L 201.312307 155.179162 
L 204.558852 155.179162 
L 204.558852 136.658973 
L 207.805398 136.658973 
L 207.805398 132.392574 
L 211.051943 132.392574 
L 211.051943 141.409342 
L 214.298489 141.409342 
L 214.298489 123.85837 
L 217.545034 123.85837 
L 217.545034 144.904428 
L 220.79158 144.904428 
L 220.79158 146.767701 
L 224.038125 146.767701 
L 224.038125 139.765338 
L 227.28467 139.765338 
L 227.28467 155.179162 
L 233.777761 155.179162 
L 233.777761 146.767701 
L 237.024307 146.767701 
L 237.024307 132.392574 
L 240.270852 132.392574 
L 240.270852 160.116243 
L 243.517398 160.116243 
L 243.517398 131.061772 
L 246.763943 131.061772 
L 246.763943 168.819808 
L 250.010489 168.819808 
L 250.010489 146.767701 
L 253.257034 146.767701 
L 253.257034 152.91284 
L 256.50358 152.91284 
L 256.50358 160.116243 
L 259.750125 160.116243 
L 259.750125 152.91284 
L 262.99667 152.91284 
L 262.99667 155.179162 
L 266.243216 155.179162 
L 266.243216 150.762793 
L 269.489761 150.762793 
L 269.489761 162.821487 
L 272.736307 162.821487 
L 272.736307 155.179162 
L 275.982852 155.179162 
L 275.982852 138.183386 
L 279.229398 138.183386 
L 279.229398 152.91284 
L 282.475943 152.91284 
L 282.475943 172.174938 
L 285.722489 172.174938 
L 285.722489 184.233633 
L 288.969034 184.233633 
L 288.969034 162.821487 
L 292.21558 162.821487 
L 292.21558 165.713444 
L 295.462125 165.713444 
L 295.462125 157.575056 
L 298.70867 157.575056 
L 298.70867 155.179162 
L 301.955216 155.179162 
L 301.955216 165.713444 
L 305.201761 165.713444 
L 305.201761 168.819808 
L 308.448307 168.819808 
L 308.448307 175.822171 
L 311.694852 175.822171 
L 311.694852 184.233633 
L 314.941398 184.233633 
L 314.941398 172.174938 
L 318.187943 172.174938 
L 318.187943 179.817263 
L 321.434489 179.817263 
L 321.434489 155.179162 
L 324.681034 155.179162 
L 324.681034 162.821487 
L 327.92758 162.821487 
L 327.92758 172.174938 
L 331.174125 172.174938 
L 331.174125 150.762793 
L 334.42067 150.762793 
L 334.42067 189.170713 
L 337.667216 189.170713 
L 337.667216 168.819808 
L 340.913761 168.819808 
L 340.913761 175.822171 
L 344.160307 175.822171 
L 344.160307 160.116243 
L 347.406852 160.116243 
L 347.406852 184.233633 
L 350.653398 184.233633 
L 350.653398 179.817263 
L 353.899943 179.817263 
L 353.899943 175.822171 
L 357.146489 175.822171 
L 357.146489 168.819808 
L 360.393034 168.819808 
L 360.393034 201.229408 
L 363.63958 201.229408 
L 363.63958 189.170713 
L 366.886125 189.170713 
L 366.886125 175.822171 
L 370.13267 175.822171 
L 370.13267 165.713444 
L 373.379216 165.713444 
L 373.379216 179.817263 
L 376.625761 179.817263 
L 376.625761 162.821487 
L 379.872307 162.821487 
L 379.872307 194.767914 
L 383.118852 194.767914 
L 383.118852 175.822171 
L 386.365398 175.822171 
L 386.365398 326.986375 
L 386.365398 326.986375 
" clip-path="url(#p700c9f7d4c)" style="fill: none; stroke: #ff7f0e; stroke-linejoin: miter"/>
   </g>
   <g id="patch_5">
    <path d="M 172.093398 326.986375 
L 172.093398 276.334125 
L 178.586489 276.334125 
L 178.586489 326.986375 
M 185.07958 326.986375 
L 185.07958 276.334125 
L 191.57267 276.334125 
L 191.57267 326.986375 
M 198.065761 326.986375 
L 198.065761 276.334125 
L 201.312307 276.334125 
L 201.312307 326.986375 
M 204.558852 326.986375 
L 204.558852 276.334125 
L 207.805398 276.334125 
L 207.805398 326.986375 
M 217.545034 326.986375 
L 217.545034 247.279654 
L 220.79158 247.279654 
L 220.79158 276.334125 
L 224.038125 276.334125 
L 224.038125 208.871734 
L 227.28467 208.871734 
L 227.28467 230.283879 
L 230.531216 230.283879 
L 230.531216 247.279654 
L 233.777761 247.279654 
L 233.777761 276.334125 
L 237.024307 276.334125 
L 237.024307 247.279654 
L 240.270852 247.279654 
L 240.270852 218.225184 
L 246.763943 218.225184 
L 246.763943 247.279654 
L 250.010489 247.279654 
L 250.010489 218.225184 
L 253.257034 218.225184 
L 253.257034 276.334125 
L 256.50358 276.334125 
L 256.50358 208.871734 
L 259.750125 208.871734 
L 259.750125 218.225184 
L 262.99667 218.225184 
L 262.99667 201.229408 
L 266.243216 201.229408 
L 266.243216 208.871734 
L 269.489761 208.871734 
L 269.489761 230.283879 
L 272.736307 230.283879 
L 272.736307 218.225184 
L 275.982852 218.225184 
L 275.982852 194.767914 
L 279.229398 194.767914 
L 279.229398 218.225184 
L 282.475943 218.225184 
L 282.475943 194.767914 
L 285.722489 194.767914 
L 285.722489 184.233633 
L 288.969034 184.233633 
L 288.969034 175.822171 
L 292.21558 175.822171 
L 292.21558 168.819808 
L 295.462125 168.819808 
L 295.462125 179.817263 
L 298.70867 179.817263 
L 298.70867 172.174938 
L 301.955216 172.174938 
L 301.955216 179.817263 
L 305.201761 179.817263 
L 305.201761 175.822171 
L 308.448307 175.822171 
L 308.448307 194.767914 
L 311.694852 194.767914 
L 311.694852 162.821487 
L 318.187943 162.821487 
L 318.187943 172.174938 
L 321.434489 172.174938 
L 321.434489 175.822171 
L 324.681034 175.822171 
L 324.681034 179.817263 
L 327.92758 179.817263 
L 327.92758 184.233633 
L 334.42067 184.233633 
L 334.42067 162.821487 
L 337.667216 162.821487 
L 337.667216 230.283879 
L 340.913761 230.283879 
L 340.913761 184.233633 
L 344.160307 184.233633 
L 344.160307 157.575056 
L 350.653398 157.575056 
L 350.653398 184.233633 
L 353.899943 184.233633 
L 353.899943 160.116243 
L 360.393034 160.116243 
L 360.393034 157.575056 
L 366.886125 157.575056 
L 366.886125 155.179162 
L 370.13267 155.179162 
L 370.13267 162.821487 
L 373.379216 162.821487 
L 373.379216 168.819808 
L 376.625761 168.819808 
L 376.625761 165.713444 
L 379.872307 165.713444 
L 379.872307 155.179162 
L 383.118852 155.179162 
L 383.118852 160.116243 
L 386.365398 160.116243 
L 386.365398 326.986375 
L 386.365398 326.986375 
" clip-path="url(#p700c9f7d4c)" style="fill: none; stroke: #2ca02c; stroke-linejoin: miter"/>
   </g>
   <g id="patch_6">
    <path d="M 45.478125 288.430125 
L 45.478125 22.318125 
" style="fill: none; stroke: #000000; stroke-width: 0.8; stroke-linejoin: miter; stroke-linecap: square"/>
   </g>
   <g id="patch_7">
    <path d="M 402.598125 288.430125 
L 402.598125 22.318125 
" style="fill: none; stroke: #000000; stroke-width: 0.8; stroke-linejoin: miter; stroke-linecap: square"/>
   </g>
   <g id="patch_8">
    <path d="M 45.478125 288.430125 
L 402.598125 288.430125 
" style="fill: none; stroke: #000000; stroke-width: 0.8; stroke-linejoin: miter; stroke-linecap: square"/>
   </g>
   <g id="patch_9">
    <path d="M 45.478125 22.318125 
L 402.598125 22.318125 
" style="fill: none; stroke: #000000; stroke-width: 0.8; stroke-linejoin: miter; stroke-linecap: square"/>
   </g>
   <g id="text_12">
    <!-- 1B4Z -->
    <g transform="translate(208.176563 16.318125)scale(0.12 -0.12)">
     <defs>
      <path id="DejaVuSans-42" d="M 1259 2228 
L 1259 519 
L 2272 519 
Q 2781 519 3026 730 
Q 3272 941 3272 1375 
Q 3272 1813 3026 2020 
Q 2781 2228 2272 2228 
L 1259 2228 
z
M 1259 4147 
L 1259 2741 
L 2194 2741 
Q 2656 2741 2882 2914 
Q 3109 3088 3109 3444 
Q 3109 3797 2882 3972 
Q 2656 4147 2194 4147 
L 1259 4147 
z
M 628 4666 
L 2241 4666 
Q 2963 4666 3353 4366 
Q 3744 4066 3744 3513 
Q 3744 3084 3544 2831 
Q 3344 2578 2956 2516 
Q 3422 2416 3680 2098 
Q 3938 1781 3938 1306 
Q 3938 681 3513 340 
Q 3088 0 2303 0 
L 628 0 
L 628 4666 
z
" transform="scale(0.015625)"/>
      <path id="DejaVuSans-34" d="M 2419 4116 
L 825 1625 
L 2419 1625 
L 2419 4116 
z
M 2253 4666 
L 3047 4666 
L 3047 1625 
L 3713 1625 
L 3713 1100 
L 3047 1100 
L 3047 0 
L 2419 0 
L 2419 1100 
L 313 1100 
L 313 1709 
L 2253 4666 
z
" transform="scale(0.015625)"/>
      <path id="DejaVuSans-5a" d="M 359 4666 
L 4025 4666 
L 4025 4184 
L 1075 531 
L 4097 531 
L 4097 0 
L 288 0 
L 288 481 
L 3238 4134 
L 359 4134 
L 359 4666 
z
" transform="scale(0.015625)"/>
     </defs>
     <use xlink:href="#DejaVuSans-31"/>
     <use xlink:href="#DejaVuSans-42" x="63.623047"/>
     <use xlink:href="#DejaVuSans-34" x="132.226562"/>
     <use xlink:href="#DejaVuSans-5a" x="195.849609"/>
    </g>
   </g>
   <g id="legend_1">
    <g id="patch_10">
     <path d="M 347.098125 79.318125 
L 395.598125 79.318125 
Q 397.598125 79.318125 397.598125 77.318125 
L 397.598125 29.318125 
Q 397.598125 27.318125 395.598125 27.318125 
L 347.098125 27.318125 
Q 345.098125 27.318125 345.098125 29.318125 
L 345.098125 77.318125 
Q 345.098125 79.318125 347.098125 79.318125 
z
" style="fill: #ffffff; opacity: 0.8; stroke: #cccccc; stroke-linejoin: miter"/>
    </g>
    <g id="patch_11">
     <path d="M 349.098125 40.418125 
L 369.098125 40.418125 
L 369.098125 33.418125 
L 349.098125 33.418125 
L 349.098125 40.418125 
z
" style="fill: none; stroke: #1f77b4; stroke-linejoin: miter"/>
    </g>
    <g id="text_13">
     <!-- $p^*$ -->
     <g transform="translate(377.098125 40.418125)scale(0.1 -0.1)">
      <defs>
       <path id="DejaVuSans-Oblique-70" d="M 3175 2156 
Q 3175 2616 2975 2859 
Q 2775 3103 2400 3103 
Q 2144 3103 1911 2972 
Q 1678 2841 1497 2591 
Q 1319 2344 1212 1994 
Q 1106 1644 1106 1300 
Q 1106 863 1306 627 
Q 1506 391 1875 391 
Q 2147 391 2380 519 
Q 2613 647 2778 891 
Q 2956 1147 3065 1494 
Q 3175 1841 3175 2156 
z
M 1394 2969 
Q 1625 3272 1939 3428 
Q 2253 3584 2638 3584 
Q 3175 3584 3472 3232 
Q 3769 2881 3769 2247 
Q 3769 1728 3584 1258 
Q 3400 788 3053 416 
Q 2822 169 2531 39 
Q 2241 -91 1919 -91 
Q 1547 -91 1294 64 
Q 1041 219 916 525 
L 556 -1331 
L -19 -1331 
L 922 3500 
L 1497 3500 
L 1394 2969 
z
" transform="scale(0.015625)"/>
       <path id="DejaVuSans-2a" d="M 3009 3897 
L 1888 3291 
L 3009 2681 
L 2828 2375 
L 1778 3009 
L 1778 1831 
L 1422 1831 
L 1422 3009 
L 372 2375 
L 191 2681 
L 1313 3291 
L 191 3897 
L 372 4206 
L 1422 3572 
L 1422 4750 
L 1778 4750 
L 1778 3572 
L 2828 4206 
L 3009 3897 
z
" transform="scale(0.015625)"/>
      </defs>
      <use xlink:href="#DejaVuSans-Oblique-70" transform="translate(0 0.765625)"/>
      <use xlink:href="#DejaVuSans-2a" transform="translate(81.764154 39.046875)scale(0.7)"/>
     </g>
    </g>
    <g id="patch_12">
     <path d="M 349.098125 56.818125 
L 369.098125 56.818125 
L 369.098125 49.818125 
L 349.098125 49.818125 
L 349.098125 56.818125 
z
" style="fill: none; stroke: #ff7f0e; stroke-linejoin: miter"/>
    </g>
    <g id="text_14">
     <!-- $\hat p_{IC}$ -->
     <g transform="translate(377.098125 56.818125)scale(0.1 -0.1)">
      <defs>
       <path id="DejaVuSans-302" d="M -1831 5119 
L -1369 5119 
L -603 3944 
L -1038 3944 
L -1600 4709 
L -2163 3944 
L -2597 3944 
L -1831 5119 
z
M -1600 3584 
L -1600 3584 
z
" transform="scale(0.015625)"/>
       <path id="DejaVuSans-Oblique-49" d="M 1081 4666 
L 1716 4666 
L 806 0 
L 172 0 
L 1081 4666 
z
" transform="scale(0.015625)"/>
       <path id="DejaVuSans-Oblique-43" d="M 4447 4306 
L 4319 3641 
Q 4019 3944 3683 4091 
Q 3347 4238 2956 4238 
Q 2422 4238 2017 3981 
Q 1613 3725 1319 3200 
Q 1131 2863 1032 2486 
Q 934 2109 934 1728 
Q 934 1091 1264 756 
Q 1594 422 2222 422 
Q 2656 422 3056 561 
Q 3456 700 3834 978 
L 3688 231 
Q 3316 72 2936 -9 
Q 2556 -91 2175 -91 
Q 1278 -91 773 396 
Q 269 884 269 1753 
Q 269 2309 461 2846 
Q 653 3384 1013 3828 
Q 1394 4300 1883 4525 
Q 2372 4750 3022 4750 
Q 3422 4750 3780 4639 
Q 4138 4528 4447 4306 
z
" transform="scale(0.015625)"/>
      </defs>
      <use xlink:href="#DejaVuSans-302" transform="translate(62.371094 13.015625)"/>
      <use xlink:href="#DejaVuSans-Oblique-70" transform="translate(0 0.515625)"/>
      <use xlink:href="#DejaVuSans-Oblique-49" transform="translate(64.433594 -15.890625)scale(0.7)"/>
      <use xlink:href="#DejaVuSans-Oblique-43" transform="translate(85.078125 -15.890625)scale(0.7)"/>
     </g>
    </g>
    <g id="patch_13">
     <path d="M 349.098125 73.218125 
L 369.098125 73.218125 
L 369.098125 66.218125 
L 349.098125 66.218125 
L 349.098125 73.218125 
z
" style="fill: none; stroke: #2ca02c; stroke-linejoin: miter"/>
    </g>
    <g id="text_15">
     <!-- $\hat p_{CC}$ -->
     <g transform="translate(377.098125 73.218125)scale(0.1 -0.1)">
      <use xlink:href="#DejaVuSans-302" transform="translate(62.371094 13.015625)"/>
      <use xlink:href="#DejaVuSans-Oblique-70" transform="translate(0 0.515625)"/>
      <use xlink:href="#DejaVuSans-Oblique-43" transform="translate(64.433594 -15.890625)scale(0.7)"/>
      <use xlink:href="#DejaVuSans-Oblique-43" transform="translate(113.310547 -15.890625)scale(0.7)"/>
     </g>
    </g>
   </g>
  </g>
 </g>
 <defs>
  <clipPath id="p700c9f7d4c">
   <rect x="45.478125" y="22.318125" width="357.12" height="266.112"/>
  </clipPath>
 </defs>
</svg>
